<?xml version="1.0" encoding="UTF-8"?>
<svg xmlns="http://www.w3.org/2000/svg" xmlns:xlink="http://www.w3.org/1999/xlink" width="20px" height="20px" viewBox="0 0 20 20" version="1.1">
<g id="surface1">
<path style=" stroke:none;fill-rule:nonzero;fill:rgb(0%,0%,0%);fill-opacity:1;" d="M 19.542969 17.332031 L 14.867188 12.65625 C 15.929688 11.078125 16.453125 9.105469 16.175781 7.003906 C 15.695312 3.429688 12.765625 0.519531 9.1875 0.0664062 C 3.867188 -0.605469 -0.605469 3.867188 0.0664062 9.1875 C 0.519531 12.765625 3.429688 15.699219 7.003906 16.175781 C 9.105469 16.457031 11.078125 15.933594 12.65625 14.867188 L 17.332031 19.542969 C 17.941406 20.15625 18.933594 20.15625 19.542969 19.542969 C 20.152344 18.933594 20.152344 17.941406 19.542969 17.332031 Z M 3.089844 8.125 C 3.089844 5.367188 5.332031 3.125 8.089844 3.125 C 10.847656 3.125 13.089844 5.367188 13.089844 8.125 C 13.089844 10.882812 10.847656 13.125 8.089844 13.125 C 5.332031 13.125 3.089844 10.882812 3.089844 8.125 Z M 3.089844 8.125 "/>
</g>
</svg>
